<svg class="theme-icon" width="20" height="20" viewBox="0 0 20 20" fill="none" xmlns="http://www.w3.org/2000/svg">
<path d="M10.5 16H9.5V15H10.5V16Z" fill="black"/>
<path d="M8.27832 3.84277C9.10039 3.50232 10.0052 3.41341 10.8779 3.58691C11.7507 3.76054 12.5524 4.18918 13.1816 4.81836C13.8109 5.44763 14.2394 6.24926 14.4131 7.12207C14.5867 7.99489 14.4977 8.89948 14.1572 9.72168C13.8166 10.5439 13.2399 11.2468 12.5 11.7412C11.8994 12.1425 11.213 12.3889 10.5 12.4688V13.5H9.5V11.5H10C10.6921 11.5 11.3688 11.2946 11.9443 10.9102C12.5197 10.5257 12.9685 9.97915 13.2334 9.33984C13.4983 8.70035 13.5676 7.99626 13.4326 7.31738C13.2976 6.63851 12.9641 6.01484 12.4746 5.52539C11.9852 5.03604 11.3614 4.70241 10.6826 4.56738C10.0039 4.43249 9.29952 4.50177 8.66016 4.7666C8.02095 5.03155 7.47427 5.48033 7.08984 6.05566C6.70538 6.63116 6.50001 7.30789 6.5 8H5.5C5.50001 7.11007 5.7644 6.23997 6.25879 5.5C6.75318 4.76015 7.45625 4.18336 8.27832 3.84277Z" fill="black"/>
<path fill-rule="evenodd" clip-rule="evenodd" d="M10 0C15.5228 0 20 4.47715 20 10C20 15.5228 15.5228 20 10 20C4.47715 20 0 15.5228 0 10C0 4.47715 4.47715 0 10 0ZM10 1C5.02944 1 1 5.02944 1 10C1 14.9706 5.02944 19 10 19C14.9706 19 19 14.9706 19 10C19 5.02944 14.9706 1 10 1Z" fill="black"/>
</svg>