<svg class="theme-icon" xmlns="http://www.w3.org/2000/svg" width="20" height="20" viewBox="0 0 20 20" fill="none">
<path d="M12.5185 2C12.4954 2 12.4734 2.0092 12.4574 2.02519L2.0247 12.4515C1.99182 12.4844 1.99176 12.5371 2.02455 12.57L7.40581 17.9747L5.98853 19.3858L0.607278 13.9812C-0.203846 13.1665 -0.202216 11.8495 0.610921 11.0369L11.0436 0.610545C11.4348 0.219619 11.9653 0 12.5185 0H17.9142C19.0662 0 20 0.933278 20 2.08453V7.47474C20 8.02759 19.7802 8.55781 19.3891 8.94873L8.94196 19.3895C8.12597 20.2049 6.8025 20.2033 5.98853 19.3858L7.40581 17.9747C7.43939 18.0084 7.49451 18.0085 7.52818 17.9748L17.9753 7.53408C17.9913 7.51814 18 7.49677 18 7.47474V2.08453C18 2.039 17.9627 2 17.9142 2H12.5185Z" fill="black"/>
<path d="M14 8C15.1046 8 16 7.10457 16 6C16 4.89543 15.1046 4 14 4C12.8954 4 12 4.89543 12 6C12 7.10457 12.8954 8 14 8Z" fill="black"/>
</svg>