<svg class="theme-icon" width="20" height="20" viewBox="0 0 20 20" fill="none" xmlns="http://www.w3.org/2000/svg">
<path fill-rule="evenodd" clip-rule="evenodd" d="M6 2H14V0H15V2H16C18.2091 2 20 3.79086 20 6V16C20 18.14 18.3194 19.8879 16.2061 19.9951L16 20H4L3.79395 19.9951C1.7488 19.8913 0.108652 18.2512 0.00488281 16.2061L0 16V6C0 3.79086 1.79086 2 4 2H5V0H6V2ZM1 9V16C1 17.6569 2.34315 19 4 19H16C17.6569 19 19 17.6569 19 16V9H1ZM4 3C2.34315 3 1 4.34315 1 6V8H19V6C19 4.34315 17.6569 3 16 3H15V6H14V3H6V6H5V3H4Z" fill="black"/>
</svg>