<svg class="theme-icon" width="20" height="20" viewBox="0 0 20 20" fill="none" xmlns="http://www.w3.org/2000/svg">
<path d="M14.8535 6.85352L11.707 10L14.8535 13.1465L14.1465 13.8535L10.293 10L14.1465 6.14648L14.8535 6.85352Z" fill="black"/>
<path fill-rule="evenodd" clip-rule="evenodd" d="M16 0C18.2091 0 20 1.79086 20 4V16C20 18.14 18.3194 19.8879 16.2061 19.9951L16 20H4L3.79395 19.9951C1.7488 19.8913 0.108652 18.2512 0.00488281 16.2061L0 16V4C0 1.79086 1.79086 3.22128e-08 4 0H16ZM4 1C2.34315 1 1 2.34315 1 4V16C1 17.6569 2.34315 19 4 19H6V1H4ZM7 19H16C17.6569 19 19 17.6569 19 16V4C19 2.34315 17.6569 1 16 1H7V19Z" fill="black"/>
</svg>