<svg class="wokiee-review-star" xmlns="http://www.w3.org/2000/svg" width="26" height="26" viewBox="0 0 26 26" fill="none">
<path fill-rule="evenodd" clip-rule="evenodd" d="M13 26C20.1797 26 26 20.1797 26 13C26 5.8203 20.1797 0 13 0C5.8203 0 0 5.8203 0 13C0 20.1797 5.8203 26 13 26ZM15.1358 10.1279L13.3242 4.56764C13.2224 4.25523 12.7776 4.25523 12.6758 4.56764L10.8642 10.1279C10.8187 10.2676 10.6877 10.3623 10.54 10.3623H4.67474C4.34494 10.3623 4.2075 10.7813 4.47397 10.9744L9.22119 14.414C9.34018 14.5002 9.38997 14.6526 9.34461 14.7918L7.53184 20.3556C7.43014 20.6678 7.79 20.9268 8.05681 20.7335L12.7992 17.2974C12.9189 17.2107 13.0811 17.2107 13.2008 17.2974L17.9432 20.7335C18.21 20.9268 18.5699 20.6678 18.4682 20.3556L16.6554 14.7918C16.61 14.6526 16.6598 14.5002 16.7788 14.414L21.526 10.9744C21.7925 10.7813 21.6551 10.3623 21.3252 10.3623H15.46C15.3123 10.3623 15.1813 10.2676 15.1358 10.1279Z" fill="#FFAB00"/>
</svg>