<svg class="theme-icon" width="20" height="20" viewBox="0 0 20 20" fill="none" xmlns="http://www.w3.org/2000/svg">
<path fill-rule="evenodd" clip-rule="evenodd" d="M8 0C8.76835 0 9.46924 0.288854 10 0.763894C10.5308 0.288854 11.2316 0 12 0C13.6569 0 15 1.34315 15 3C15 3.35064 14.9398 3.68722 14.8293 4H16C18.2091 4 20 5.79086 20 8V11.5H18V16C18 18.2091 16.2091 20 14 20H6C3.79086 20 2 18.2091 2 16V11.5H0V8C0 5.79086 1.79086 4 4 4H5.17071C5.06015 3.68722 5 3.35064 5 3C5 1.34315 6.34315 0 8 0ZM9 4H8C7.44772 4 7 3.55228 7 3C7 2.44772 7.44772 2 8 2C8.55228 2 9 2.44772 9 3V4ZM11 7.41421V9.5H18V8C18 6.89543 17.1046 6 16 6H12.4142L13.2071 6.79289C13.5976 7.18342 13.5976 7.81658 13.2071 8.20711C12.8166 8.59763 12.1834 8.59763 11.7929 8.20711L11 7.41421ZM4 6H7.58579L6.79289 6.79289C6.40237 7.18342 6.40237 7.81658 6.79289 8.20711C7.18342 8.59763 7.81658 8.59763 8.20711 8.20711L9 7.41421V9.5H2V8C2 6.89543 2.89543 6 4 6ZM9 11.5H4V16C4 17.1046 4.89543 18 6 18H9V11.5ZM11 18H14C15.1046 18 16 17.1046 16 16V11.5H11V18ZM13 3C13 3.55228 12.5523 4 12 4H11V3C11 2.44772 11.4477 2 12 2C12.5523 2 13 2.44772 13 3Z" fill="black"/>
</svg>
