<svg class="theme-icon" xmlns="http://www.w3.org/2000/svg" width="20" height="20" viewBox="0 0 20 20" fill="none">
<path fill-rule="evenodd" clip-rule="evenodd" d="M0.611098 12.8002C0.219818 13.1915 0 13.7222 0 14.2755V17.9136C0 19.0659 0.934123 20 2.08642 20H5.72448C6.27783 20 6.80852 19.7802 7.1998 19.3889L16.0872 10.5015L17.0858 11.5L12.2929 16.2929C11.9024 16.6834 11.9024 17.3166 12.2929 17.7071C12.6834 18.0976 13.3166 18.0976 13.7071 17.7071L19.2071 12.2071C19.5976 11.8166 19.5976 11.1834 19.2071 10.7929L17.5015 9.08724L19.3889 7.1998C20.2037 6.385 20.2037 5.06395 19.3889 4.24915L15.7508 0.611099C14.936 -0.2037 13.615 -0.2037 12.8002 0.611099L0.611098 12.8002ZM14.3366 2.02531L17.9747 5.66337C18.0084 5.69712 18.0084 5.75184 17.9747 5.78559L16.0872 7.67303L12.327 3.91276L14.2144 2.02531C14.2482 1.99156 14.3029 1.99156 14.3366 2.02531ZM10.9128 5.32697L4.32697 11.9128L8.08724 15.673L14.673 9.08724L10.9128 5.32697ZM2.02531 14.2144L2.91276 13.327L6.67303 17.0872L5.78559 17.9747C5.76938 17.9909 5.7474 18 5.72448 18H2.08642C2.03869 18 2 17.9613 2 17.9136V14.2755C2 14.2526 2.00911 14.2306 2.02531 14.2144Z" fill="black"/>
</svg>