<svg class="theme-icon" width="20" height="20" viewBox="0 0 20 20" fill="none" xmlns="http://www.w3.org/2000/svg">
<path d="M14.7071 7.70711C15.0976 7.31658 15.0976 6.68342 14.7071 6.29289C14.3166 5.90237 13.6834 5.90237 13.2929 6.29289L10.2929 9.29289C9.90237 9.68342 9.90237 10.3166 10.2929 10.7071L13.2929 13.7071C13.6834 14.0976 14.3166 14.0976 14.7071 13.7071C15.0976 13.3166 15.0976 12.6834 14.7071 12.2929L12.4142 10L14.7071 7.70711Z" fill="black"/>
<path fill-rule="evenodd" clip-rule="evenodd" d="M4 0C1.79086 0 0 1.79086 0 4V16C0 18.2091 1.79086 20 4 20H16C18.2091 20 20 18.2091 20 16V4C20 1.79086 18.2091 0 16 0H4ZM16 2H8V18H16C17.1046 18 18 17.1046 18 16V4C18 2.89543 17.1046 2 16 2ZM4 2H6V18H4C2.89543 18 2 17.1046 2 16V4C2 2.89543 2.89543 2 4 2Z" fill="black"/>
</svg>
