<svg class="theme-icon" width="20" height="20" viewBox="0 0 20 20" fill="none" xmlns="http://www.w3.org/2000/svg">
<path d="M12 10C12 8.89543 11.1046 8 10 8C8.89543 8 8 8.89543 8 10C8 11.1046 8.89543 12 10 12V14C7.79086 14 6 12.2091 6 10C6 7.79086 7.79086 6 10 6C12.2091 6 14 7.79086 14 10C14 12.2091 12.2091 14 10 14V12C11.1046 12 12 11.1046 12 10Z" fill="#FD0808"/>
<path d="M10.3994 2.00977C14.5057 2.20302 18.0652 5.36844 20 10L19.8076 10.4434C17.7692 14.9786 14.1413 17.9998 10.001 18V16C12.9855 15.9998 15.9546 13.8604 17.8086 10C15.9546 6.13958 12.9855 4.0002 10.001 4C7.01575 4 4.0444 6.13916 2.19043 10C4.0444 13.8608 7.01575 16 10.001 16V18L9.60156 17.9902C5.49505 17.7969 1.9347 14.6319 0 10C1.99711 5.21874 5.7268 2 10.001 2L10.3994 2.00977Z" fill="#FD0808"/>
</svg>