<svg class="theme-icon" width="20" height="20" viewBox="0 0 20 20" fill="none" xmlns="http://www.w3.org/2000/svg">
<path fill-rule="evenodd" clip-rule="evenodd" d="M10 6C12.2091 6 14 7.79086 14 10C14 12.2091 12.2091 14 10 14C7.79086 14 6 12.2091 6 10C6 7.79086 7.79086 6 10 6ZM10 7C8.34315 7 7 8.34315 7 10C7 11.6569 8.34315 13 10 13C11.6569 13 13 11.6569 13 10C13 8.34315 11.6569 7 10 7Z" fill="black"/>
<path fill-rule="evenodd" clip-rule="evenodd" d="M10.3994 2.00977C14.5057 2.20302 18.0652 5.36844 20 10L19.8076 10.4434C17.7692 14.9786 14.1413 17.9998 10.001 18L9.60156 17.9902C5.49505 17.7969 1.9347 14.6319 0 10C1.99711 5.21874 5.7268 2 10.001 2L10.3994 2.00977ZM9.9873 3C6.37228 3.0067 3.02246 5.66897 1.08887 10C2.9602 14.1912 6.16151 16.8218 9.63867 16.9902L10.0127 16.999C13.6183 16.9931 16.956 14.3485 18.8955 10.0332L18.9102 9.99902C17.0385 5.80821 13.8382 3.17665 10.3613 3.00879L9.9873 3Z" fill="black"/>
</svg>
