<svg class="theme-icon" width="20" height="20" viewBox="0 0 20 20" fill="none" xmlns="http://www.w3.org/2000/svg">
<path fill-rule="evenodd" clip-rule="evenodd" d="M10 0L9.99902 1.03027L4.48535 3L9.99902 4.96875L10 4.96777L10.001 4.96875L15.5146 3L10.001 1.03027L10 0H10.0879L10.1689 0.0292969L17.3164 2.58203L17.4082 2.70898L20 6.33789V6.81934L18.001 7.75195V16.8389L17.6865 16.9639L10.0947 20H9.90527L2.31348 16.9639L1.99902 16.8389V7.75195L0 6.81934V6.33789L2.5918 2.70898L2.68359 2.58203L9.83105 0.0292969L9.91211 0H10ZM8.23926 10.6641L2.99902 8.21777V16.1611L9.49902 18.7617V7.98047L8.23926 10.6641ZM10.501 18.7617L17.001 16.1611V8.21777L11.7607 10.6641L10.501 7.98047V18.7617ZM1.25684 6.30078L7.75879 9.33496L9.40918 5.81934L3.1875 3.59766L1.25684 6.30078ZM10.5908 5.81934L12.2412 9.33496L18.7432 6.30078L16.8125 3.59766L10.5908 5.81934Z" fill="black"/>
</svg>