<svg class="theme-icon" xmlns="http://www.w3.org/2000/svg" width="20" height="20" viewBox="0 0 20 20" fill="none">
<path d="M11 12C11 11.4477 10.5523 11 10 11C9.44772 11 9 11.4477 9 12V15C9 15.5523 9.44772 16 10 16C10.5523 16 11 15.5523 11 15V12Z" fill="black"/>
<path fill-rule="evenodd" clip-rule="evenodd" d="M18 11C18 8.79086 16.2091 7 14 7V4C14 1.79086 12.2091 0 10 0C7.79086 0 6 1.79086 6 4V7C3.79086 7 2 8.79086 2 11V16C2 18.2091 3.79086 20 6 20H14C16.2091 20 18 18.2091 18 16V11ZM12 4V7H8V4C8 2.89543 8.89543 2 10 2C11.1046 2 12 2.89543 12 4ZM6 9C4.89543 9 4 9.89543 4 11V16C4 17.1046 4.89543 18 6 18H14C15.1046 18 16 17.1046 16 16V11C16 9.89543 15.1046 9 14 9H6Z" fill="black"/>
</svg>