<svg class="theme-icon" width="20" height="20" viewBox="0 0 20 20" fill="none" xmlns="http://www.w3.org/2000/svg">
<path fill-rule="evenodd" clip-rule="evenodd" d="M2 0C0.895431 0 0 0.89543 0 2V7C0 8.10457 0.89543 9 2 9H7C8.10457 9 9 8.10457 9 7V2C9 0.895431 8.10457 0 7 0H2ZM2 2H7V7H2V2Z" fill="black"/>
<path fill-rule="evenodd" clip-rule="evenodd" d="M2 11C0.895431 11 0 11.8954 0 13V18C0 19.1046 0.89543 20 2 20H7C8.10457 20 9 19.1046 9 18V13C9 11.8954 8.10457 11 7 11H2ZM2 13H7V18H2V13Z" fill="black"/>
<path fill-rule="evenodd" clip-rule="evenodd" d="M11 13C11 11.8954 11.8954 11 13 11H18C19.1046 11 20 11.8954 20 13V18C20 19.1046 19.1046 20 18 20H13C11.8954 20 11 19.1046 11 18V13ZM18 13H13V18H18V13Z" fill="black"/>
<path fill-rule="evenodd" clip-rule="evenodd" d="M13 0C11.8954 0 11 0.89543 11 2V7C11 8.10457 11.8954 9 13 9H18C19.1046 9 20 8.10457 20 7V2C20 0.895431 19.1046 0 18 0H13ZM13 2H18V7H13V2Z" fill="black"/>
</svg>
