<svg class="theme-icon" width="20" height="20" viewBox="0 0 20 20" fill="none" xmlns="http://www.w3.org/2000/svg">
<path fill-rule="evenodd" clip-rule="evenodd" d="M16 1C18.2091 1 20 2.79086 20 5V15C20 17.14 18.3194 18.8879 16.2061 18.9951L16 19H4L3.79395 18.9951C1.7488 18.8913 0.108652 17.2512 0.00488281 15.2061L0 15V5C0 2.79086 1.79086 1 4 1H16ZM1.55664 3.26172C1.20699 3.75231 1 4.35166 1 5V15C1 16.6569 2.34315 18 4 18H16C17.6569 18 19 16.6569 19 15V5C19 4.35272 18.7929 3.75479 18.4443 3.26465L10.002 11.707L1.55664 3.26172ZM4 2C3.35272 2 2.75479 2.20706 2.26465 2.55566L10.002 10.293L17.7373 2.55664C17.2468 2.20727 16.6481 2 16 2H4Z" fill="black"/>
</svg>
