<svg class="theme-icon" width="20" height="20" viewBox="0 0 20 20" fill="none" xmlns="http://www.w3.org/2000/svg">
<path fill-rule="evenodd" clip-rule="evenodd" d="M10 20C15.5228 20 20 15.5228 20 10C20 8.11384 19.4778 6.34965 18.5701 4.84411L19.7071 3.70711C20.0976 3.31658 20.0976 2.68342 19.7071 2.29289C19.3166 1.90237 18.6834 1.90237 18.2929 2.29289L17.3579 3.22786C15.5305 1.24335 12.9104 0 10 0C4.47715 0 0 4.47715 0 10C0 15.5228 4.47715 20 10 20ZM17.1015 6.31276C17.6755 7.41616 18 8.67019 18 10C18 14.4183 14.4183 18 10 18C5.58172 18 2 14.4183 2 10C2 5.58172 5.58172 2 10 2C12.3582 2 14.478 3.02032 15.9422 4.64358L10 10.5858L6.70711 7.29289C6.31658 6.90237 5.68342 6.90237 5.29289 7.29289C4.90237 7.68342 4.90237 8.31658 5.29289 8.70711L9.29289 12.7071C9.68342 13.0976 10.3166 13.0976 10.7071 12.7071L17.1015 6.31276Z" fill="black"/>
</svg>