<svg class="theme-icon" width="20" height="20" viewBox="0 0 20 20" fill="none" xmlns="http://www.w3.org/2000/svg">
<path fill-rule="evenodd" clip-rule="evenodd" d="M12.2227 0C13.7566 0.000253206 15 1.3433 15 3C15 3.76922 14.7298 4.46903 14.2891 5H16C18.2091 5 20 6.79086 20 9V12H18V16C18 18.14 16.3194 19.8879 14.2061 19.9951L14 20H6C3.79086 20 2 18.2091 2 16V12H0V9C0 6.79086 1.79086 5 4 5H5.71094C5.27021 4.46903 5 3.76922 5 3C5 1.3433 6.24342 0.000253206 7.77734 0C8.68752 0 9.49336 0.474515 10 1.20508C10.5066 0.474515 11.3125 0 12.2227 0ZM3 16C3 17.6569 4.34315 19 6 19H9.5V12H3V16ZM10.5 19H14C15.6569 19 17 17.6569 17 16V12H10.5V19ZM4 6C2.39489 6 1.08421 7.26055 1.00391 8.8457L1 9V11H9.5V6.35156L7.38086 8.8252L6.62109 8.1748L8.48535 6H4ZM13.3809 8.1748L12.6211 8.8252L10.5 6.34961V11H19V9C19 7.34315 17.6569 6 16 6H11.5166L13.3809 8.1748ZM7.77734 1.2002C6.85707 1.20045 6.11133 2.00604 6.11133 3C6.11133 3.99396 6.85707 4.79955 7.77734 4.7998H9.44434V3C9.44434 2.00589 8.69782 1.2002 7.77734 1.2002ZM12.2227 1.2002C11.3022 1.2002 10.5557 2.00589 10.5557 3V4.7998H12.2227C13.1429 4.79955 13.8887 3.99396 13.8887 3C13.8887 2.00604 13.1429 1.20045 12.2227 1.2002Z" fill="#FF0B0B"/>
</svg>