<svg class="theme-icon" width="20" height="20" viewBox="0 0 20 20" fill="none" xmlns="http://www.w3.org/2000/svg">
<path fill-rule="evenodd" clip-rule="evenodd" d="M11 1C12.1046 1 13 1.89543 13 3H16.877L18.9443 10.2363C19.5727 10.5735 20 11.2369 20 12V16H19C19 17.6569 17.6569 19 16 19C14.3431 19 13 17.6569 13 16H9C9 17.6569 7.65685 19 6 19C4.34315 19 3 17.6569 3 16H0V3C0 1.89543 0.895431 1 2 1H11ZM6 14C4.89543 14 4 14.8954 4 16C4 17.1046 4.89543 18 6 18C7.10457 18 8 17.1046 8 16C8 14.8954 7.10457 14 6 14ZM16 14C14.8954 14 14 14.8954 14 16C14 17.1046 14.8954 18 16 18C17.1046 18 18 17.1046 18 16C18 14.8954 17.1046 14 16 14ZM13 15H13.1738C13.5859 13.8353 14.6941 13 16 13C17.3059 13 18.4141 13.8353 18.8262 15H19V12C19 11.4477 18.5523 11 18 11H13V15ZM2 2C1.44772 2 1 2.44772 1 3V15H3.17383C3.58594 13.8353 4.69415 13 6 13C7.30585 13 8.41406 13.8353 8.82617 15H12V3C12 2.44772 11.5523 2 11 2H2ZM13 10H17.8369L16.123 4H13V10Z" fill="#FD1717"/>
</svg>