<svg class="theme-icon" width="20" height="20" viewBox="0 0 20 20" fill="none" xmlns="http://www.w3.org/2000/svg">
<path d="M11 14C11 14.5523 11.4477 15 12 15C12.5523 15 13 14.5523 13 14V13H14C14.5523 13 15 12.5523 15 12C15 11.4477 14.5523 11 14 11H13V10C13 9.44771 12.5523 9 12 9C11.4477 9 11 9.44771 11 10V11H10C9.44771 11 9 11.4477 9 12C9 12.5523 9.44771 13 10 13H11V14Z" fill="#FD0808"/>
<path fill-rule="evenodd" clip-rule="evenodd" d="M16 4C18.2091 4 20 5.79086 20 8V16C20 18.2091 18.2091 20 16 20H8C5.79086 20 4 18.2091 4 16C1.79086 16 0 14.2091 0 12V4C0 1.79086 1.79086 0 4 0H12C14.2091 0 16 1.79086 16 4ZM12 2H4C2.89543 2 2 2.89543 2 4V12C2 13.1046 2.89543 14 4 14V8C4 5.79086 5.79086 4 8 4H14C14 2.89543 13.1046 2 12 2ZM18 8C18 6.89543 17.1046 6 16 6H8C6.89543 6 6 6.89543 6 8V16C6 17.1046 6.89543 18 8 18H16C17.1046 18 18 17.1046 18 16V8Z" fill="#FD0808"/>
</svg>
