<svg class="theme-icon" width="20" height="20" viewBox="0 0 20 20" fill="none" xmlns="http://www.w3.org/2000/svg">
<path fill-rule="evenodd" clip-rule="evenodd" d="M8.84375 15.5H9C9 16.6935 8.52555 17.8377 7.68164 18.6816C6.83773 19.5256 5.69347 20 4.5 20L4.27734 19.9941C3.23905 19.9427 2.25007 19.5337 1.47949 18.8359L1.31836 18.6816C0.474446 17.8377 1.8021e-07 16.6935 0 15.5H0.15625L4.0332 5.32227H4.9668L8.84375 15.5ZM1.14648 16.5C1.3111 17.052 1.6107 17.5599 2.02539 17.9746C2.68177 18.631 3.57174 19 4.5 19C5.42826 19 6.31823 18.631 6.97461 17.9746C7.3893 17.5599 7.6889 17.052 7.85352 16.5H1.14648ZM1.22461 15.5H7.77539L4.5 6.90234L1.22461 15.5Z" fill="black"/>
<path fill-rule="evenodd" clip-rule="evenodd" d="M19.8438 15.5H20C20 16.6935 19.5256 17.8377 18.6816 18.6816C17.8377 19.5256 16.6935 20 15.5 20L15.2773 19.9941C14.2391 19.9427 13.2501 19.5337 12.4795 18.8359L12.3184 18.6816C11.4744 17.8377 11 16.6935 11 15.5H11.1562L15.0332 5.32227H15.9668L19.8438 15.5ZM12.1465 16.5C12.3111 17.052 12.6107 17.5599 13.0254 17.9746C13.6818 18.631 14.5717 19 15.5 19C16.4283 19 17.3182 18.631 17.9746 17.9746C18.3893 17.5599 18.6889 17.052 18.8535 16.5H12.1465ZM12.2246 15.5H18.7754L15.5 6.90234L12.2246 15.5Z" fill="black"/>
<path fill-rule="evenodd" clip-rule="evenodd" d="M10 0C11.4865 0 12.7199 1.08118 12.958 2.5H17V3.5H12.958C12.7199 4.91882 11.4865 6 10 6C8.51353 6 7.28007 4.91882 7.04199 3.5H3V2.5H7.04199C7.28007 1.08118 8.51353 0 10 0ZM10 1C8.89543 1 8 1.89543 8 3C8 4.10457 8.89543 5 10 5C11.1046 5 12 4.10457 12 3C12 1.89543 11.1046 1 10 1Z" fill="black"/>
</svg>