<svg class="theme-icon" width="20" height="20" viewBox="0 0 20 20" fill="none" xmlns="http://www.w3.org/2000/svg">
<path fill-rule="evenodd" clip-rule="evenodd" d="M5.5 17C6.32843 17 7 17.6716 7 18.5C7 19.3284 6.32843 20 5.5 20C4.67157 20 4 19.3284 4 18.5C4 17.6716 4.67157 17 5.5 17ZM5.5 18C5.22386 18 5 18.2239 5 18.5C5 18.7761 5.22386 19 5.5 19C5.77614 19 6 18.7761 6 18.5C6 18.2239 5.77614 18 5.5 18Z" fill="black"/>
<path fill-rule="evenodd" clip-rule="evenodd" d="M10.5 17C11.3284 17 12 17.6716 12 18.5C12 19.3284 11.3284 20 10.5 20C9.67157 20 9 19.3284 9 18.5C9 17.6716 9.67157 17 10.5 17ZM10.5 18C10.2239 18 10 18.2239 10 18.5C10 18.7761 10.2239 19 10.5 19C10.7761 19 11 18.7761 11 18.5C11 18.2239 10.7761 18 10.5 18Z" fill="black"/>
<path d="M14 6.79297L15.3535 8.14648L14.6465 8.85352L13 7.20703V3H14V6.79297Z" fill="black"/>
<path fill-rule="evenodd" clip-rule="evenodd" d="M13.5 0C17.0899 0 20 2.91015 20 6.5C20 10.0899 17.0899 13 13.5 13C13.3028 13 13.1078 12.9899 12.915 12.9727L12.4102 15.5H3.57617L2.57617 9.5H0V8.5H7.31445C7.11086 7.86986 7 7.19791 7 6.5C7 2.91015 9.91015 0 13.5 0ZM4.42383 14.5H11.5898L11.9287 12.8066C10.1034 12.3533 8.58319 11.1301 7.7334 9.5H3.58984L4.42383 14.5ZM13.5 1C10.4624 1 8 3.46243 8 6.5C8 9.53757 10.4624 12 13.5 12C16.5376 12 19 9.53757 19 6.5C19 3.46243 16.5376 1 13.5 1Z" fill="black"/>
</svg>