<svg class="theme-icon" width="20" height="20" viewBox="0 0 20 20" fill="none" xmlns="http://www.w3.org/2000/svg">
<path fill-rule="evenodd" clip-rule="evenodd" d="M10.669 2.94762C10.2887 2.60535 9.71134 2.60535 9.33104 2.94762L3.33104 8.34762C3.12032 8.53727 3 8.80743 3 9.09092V17.0002C3 17.5525 3.44771 18.0002 4 18.0002H6V14.0002C6 12.8956 6.89543 12.0002 8 12.0002H12C13.1046 12.0002 14 12.8956 14 14.0002V18.0002H16C16.5523 18.0002 17 17.5525 17 17.0002V9.09092C17 8.80743 16.8797 8.53727 16.669 8.34762L10.669 2.94762ZM7.99311 1.46103C9.13402 0.434211 10.866 0.434213 12.0069 1.46104L18.0069 6.86104C18.639 7.42996 19 8.24046 19 9.09092V17.0002C19 18.657 17.6569 20.0002 16 20.0002H12V14.0002H8V20.0002H4C2.34315 20.0002 1 18.6571 1 17.0002V9.09092C1 8.24046 1.36096 7.42996 1.99311 6.86104L7.99311 1.46103Z" fill="black"/>
</svg>