<svg class="theme-icon" width="20" height="20" viewBox="0 0 20 20" fill="none" xmlns="http://www.w3.org/2000/svg">
<path fill-rule="evenodd" clip-rule="evenodd" d="M16.0356 1.97884C17.1301 1.97884 18.0173 2.8648 18.0173 3.95768C18.0173 5.05056 17.1301 5.93652 16.0356 5.93652C14.9411 5.93652 14.0539 5.05056 14.0539 3.95768C14.0539 2.8648 14.9411 1.97884 16.0356 1.97884ZM16.0356 2.96826C15.4884 2.96826 15.0448 3.41124 15.0448 3.95768C15.0448 4.50412 15.4884 4.9471 16.0356 4.9471C16.5828 4.9471 17.0265 4.50412 17.0265 3.95768C17.0265 3.41124 16.5828 2.96826 16.0356 2.96826Z" fill="black"/>
<path fill-rule="evenodd" clip-rule="evenodd" d="M20 8.62747L7.5756 20L0.305772 11.7039L0 11.3561L11.3726 0H20V8.62747ZM1.35565 11.4006L7.65301 18.5864L19.0091 8.19267V0.98942H11.7829L1.35565 11.4006Z" fill="black"/>
</svg>