<svg class="theme-icon" xmlns="http://www.w3.org/2000/svg" width="20" height="20" viewBox="0 0 20 20" fill="none">
<path d="M11.4142 11L13.7071 13.2929C14.0976 13.6834 14.0976 14.3166 13.7071 14.7071C13.3166 15.0976 12.6834 15.0976 12.2929 14.7071L10 12.4142L7.70711 14.7071C7.31658 15.0976 6.68342 15.0976 6.29289 14.7071C5.90237 14.3166 5.90237 13.6834 6.29289 13.2929L8.58579 11L6.29289 8.70711C5.90237 8.31658 5.90237 7.68342 6.29289 7.29289C6.68342 6.90237 7.31658 6.90237 7.70711 7.29289L10 9.58579L12.2929 7.29289C12.6834 6.90237 13.3166 6.90237 13.7071 7.29289C14.0976 7.68342 14.0976 8.31658 13.7071 8.70711L11.4142 11Z" fill="black"/>
<path fill-rule="evenodd" clip-rule="evenodd" d="M9 0C7.89543 0 7 0.895431 7 2H1C0.447715 2 0 2.44772 0 3C0 3.55228 0.447716 4 1 4H2V16C2 18.2091 3.79086 20 6 20H14C16.2091 20 18 18.2091 18 16V4H19C19.5523 4 20 3.55228 20 3C20 2.44772 19.5523 2 19 2H13C13 0.895431 12.1046 0 11 0H9ZM4 4H16V16C16 17.1046 15.1046 18 14 18H6C4.89543 18 4 17.1046 4 16V4Z" fill="black"/>
</svg>