<svg class="theme-icon" width="20" height="20" viewBox="0 0 20 20" fill="none" xmlns="http://www.w3.org/2000/svg">
<path d="M2.86148 0.245995C3.26367 -0.082045 3.84401 -0.0819515 4.24624 0.245995L4.33023 0.32119L7.1691 3.16006C7.59753 3.58848 7.59743 4.28332 7.1691 4.71181L5.8898 5.99111C4.87941 7.00148 4.47057 8.64252 5.28628 10.0331C6.41925 11.9642 8.02616 13.5757 9.95425 14.7138C11.3454 15.5348 12.9905 15.1272 14.0031 14.1151L15.2882 12.831L15.3712 12.7558C15.7735 12.4276 16.3538 12.4277 16.756 12.7558L16.84 12.831L19.6789 15.6698C20.1073 16.0983 20.1073 16.7931 19.6789 17.2216L18.2209 18.6796C17.7954 19.1026 17.2901 19.4374 16.7345 19.664C16.178 19.8909 15.5817 20.0052 14.9806 19.9999H14.9699C11.8793 19.9999 8.1248 17.98 5.07242 14.9276C2.02003 11.8753 0.000150065 8.12066 0.000150065 5.03017V5.02041C-0.00474098 4.41899 0.109977 3.82245 0.337064 3.26553C0.563668 2.70985 0.897744 2.20414 1.32046 1.77822L2.77847 0.32119L2.86148 0.245995ZM3.6232 1.02822C3.58529 0.990319 3.52349 0.99046 3.4855 1.02822L2.03042 2.48232C1.70058 2.8146 1.43968 3.20896 1.26285 3.64248C1.0857 4.07688 0.996399 4.54251 1.00015 5.01162V5.03017C1.00015 7.74417 2.81764 11.2588 5.77945 14.2206C8.74125 17.1824 12.2558 18.9999 14.9699 18.9999H14.9894C15.4579 19.004 15.9227 18.9151 16.3566 18.7382C16.7897 18.5615 17.1841 18.3004 17.5158 17.9706L18.9718 16.5145C19.0097 16.4766 19.0098 16.4148 18.9718 16.3769L16.132 13.538C16.094 13.5003 16.0332 13.5002 15.9953 13.538L14.7101 14.8222C13.4392 16.0926 11.3034 16.671 9.44644 15.5751C7.37193 14.3507 5.642 12.6177 4.423 10.5399C3.33404 8.68381 3.91438 6.55246 5.18277 5.28408L6.46206 4.00478C6.49979 3.9669 6.49973 3.90599 6.46206 3.86807L3.6232 1.02822Z" fill="black"/>
</svg>